<svg width="533" height="94" viewBox="0 0 533 94" fill="none" xmlns="http://www.w3.org/2000/svg">
<path d="M29.944 9.952C35.1493 9.952 39.7573 10.464 43.768 11.488C47.7787 12.512 51.3627 13.8347 54.52 15.456L50.552 28.512C47.0533 26.8053 43.6827 25.5253 40.44 24.672C37.1973 23.7333 34.04 23.264 30.968 23.264C26.872 23.264 23.672 24.0747 21.368 25.696C19.1493 27.3173 18.04 29.4933 18.04 32.224C18.04 35.04 19.0213 37.1733 20.984 38.624C22.9467 40.0747 26.104 41.4827 30.456 42.848L38.136 45.28C44.536 47.4133 49.528 50.4427 53.112 54.368C56.7813 58.2933 58.616 63.1147 58.616 68.832C58.616 72.2453 57.976 75.4453 56.696 78.432C55.416 81.4187 53.496 84.0213 50.936 86.24C48.376 88.4587 45.176 90.208 41.336 91.488C37.496 92.768 33.016 93.408 27.896 93.408C18.2533 93.408 9.42133 91.4453 1.4 87.52L5.368 74.464C9.03733 76.256 12.6213 77.664 16.12 78.688C19.6187 79.6267 23.288 80.096 27.128 80.096C31.6507 80.096 35.064 79.2853 37.368 77.664C39.672 75.9573 40.824 73.6107 40.824 70.624C40.824 69.6 40.6107 68.6187 40.184 67.68C39.8427 66.656 39.16 65.7173 38.136 64.864C37.112 63.9253 35.704 63.0293 33.912 62.176C32.2053 61.2373 29.944 60.3413 27.128 59.488L20.344 57.184C17.3573 56.16 14.6267 54.9653 12.152 53.6C9.67733 52.2347 7.544 50.656 5.752 48.864C4.04533 47.072 2.68 44.9813 1.656 42.592C0.717333 40.1173 0.248 37.2587 0.248 34.016C0.248 30.5173 0.888 27.3173 2.168 24.416C3.448 21.4293 5.32533 18.8693 7.8 16.736C10.36 14.6027 13.4747 12.9387 17.144 11.744C20.8987 10.5493 25.1653 9.952 29.944 9.952ZM130.697 61.024C130.697 66.0587 129.886 70.5813 128.265 74.592C126.644 78.6027 124.382 82.016 121.481 84.832C118.665 87.5627 115.337 89.696 111.497 91.232C107.657 92.6827 103.518 93.408 99.081 93.408C94.6437 93.408 90.505 92.7253 86.665 91.36C82.9103 89.9947 79.625 87.9893 76.809 85.344C74.0783 82.6987 71.9023 79.456 70.281 75.616C68.745 71.6907 67.977 67.2533 67.977 62.304C67.977 57.0987 68.7877 52.4907 70.409 48.48C72.0303 44.384 74.249 40.9707 77.065 38.24C79.9663 35.424 83.337 33.2907 87.177 31.84C91.017 30.3893 95.1557 29.664 99.593 29.664C104.03 29.664 108.126 30.3467 111.881 31.712C115.721 33.0773 119.006 35.0827 121.737 37.728C124.553 40.288 126.729 43.5307 128.265 47.456C129.886 51.3813 130.697 55.904 130.697 61.024ZM113.161 61.664C113.161 58.1653 112.777 55.1787 112.009 52.704C111.241 50.2293 110.217 48.224 108.937 46.688C107.657 45.152 106.164 44.0427 104.457 43.36C102.75 42.592 101.001 42.208 99.209 42.208C97.417 42.208 95.7103 42.5493 94.089 43.232C92.4677 43.8293 91.017 44.896 89.737 46.432C88.457 47.8827 87.433 49.8453 86.665 52.32C85.897 54.7947 85.513 57.9093 85.513 61.664C85.513 64.992 85.897 67.8933 86.665 70.368C87.433 72.7573 88.457 74.72 89.737 76.256C91.1023 77.792 92.5957 78.944 94.217 79.712C95.9237 80.48 97.673 80.864 99.465 80.864C101.257 80.864 102.964 80.5653 104.585 79.968C106.206 79.2853 107.657 78.176 108.937 76.64C110.217 75.104 111.241 73.1413 112.009 70.752C112.777 68.2773 113.161 65.248 113.161 61.664ZM159.829 92H142.805V30.944H156.117L158.165 38.752C160.981 35.8507 164.053 33.632 167.381 32.096C170.794 30.4747 174.549 29.664 178.645 29.664C185.386 29.664 190.549 31.4987 194.133 35.168C197.717 38.8373 199.509 44.1707 199.509 51.168V92H182.485V52.96C182.485 49.8027 181.717 47.328 180.181 45.536C178.645 43.6587 176.384 42.72 173.397 42.72C171.178 42.72 168.832 43.36 166.357 44.64C163.968 45.8347 161.792 47.4987 159.829 49.632V92ZM216.463 92V30.944H233.487V92H216.463ZM225.039 17.888C222.138 17.888 219.876 17.0773 218.255 15.456C216.634 13.7493 215.823 11.6587 215.823 9.184C215.823 6.70933 216.634 4.66133 218.255 3.03999C219.876 1.33333 222.138 0.479996 225.039 0.479996C227.855 0.479996 230.074 1.33333 231.695 3.03999C233.402 4.66133 234.255 6.70933 234.255 9.184C234.255 11.6587 233.444 13.7493 231.823 15.456C230.202 17.0773 227.94 17.888 225.039 17.888ZM282.43 80.864C285.161 80.864 287.55 80.5227 289.598 79.84C291.731 79.072 293.481 78.3467 294.846 77.664L298.046 89.44C296.339 90.3787 293.865 91.2747 290.622 92.128C287.379 92.9813 283.838 93.408 279.998 93.408C275.39 93.408 271.081 92.7253 267.07 91.36C263.059 89.9947 259.561 87.9893 256.574 85.344C253.673 82.6133 251.369 79.2853 249.662 75.36C247.955 71.4347 247.102 66.8693 247.102 61.664C247.102 56.8853 247.913 52.5333 249.534 48.608C251.155 44.6827 253.417 41.312 256.318 38.496C259.219 35.68 262.718 33.504 266.814 31.968C270.91 30.432 275.39 29.664 280.254 29.664C282.899 29.664 285.673 29.92 288.574 30.432C291.561 30.944 294.675 32.0533 297.918 33.76L294.334 45.536C292.542 44.512 290.579 43.7013 288.446 43.104C286.398 42.4213 284.307 42.08 282.174 42.08C276.883 42.08 272.574 43.7013 269.246 46.944C266.003 50.1867 264.382 54.9227 264.382 61.152C264.382 64.8213 264.894 67.936 265.918 70.496C267.027 72.9707 268.435 74.976 270.142 76.512C271.849 78.048 273.769 79.1573 275.902 79.84C278.035 80.5227 280.211 80.864 282.43 80.864Z" fill="#6817E0"/>
<path d="M336.694 9.952C341.899 9.952 346.507 10.464 350.518 11.488C354.529 12.512 358.113 13.8347 361.27 15.456L357.302 28.512C353.803 26.8053 350.433 25.5253 347.19 24.672C343.947 23.7333 340.79 23.264 337.718 23.264C333.622 23.264 330.422 24.0747 328.118 25.696C325.899 27.3173 324.79 29.4933 324.79 32.224C324.79 35.04 325.771 37.1733 327.734 38.624C329.697 40.0747 332.854 41.4827 337.206 42.848L344.886 45.28C351.286 47.4133 356.278 50.4427 359.862 54.368C363.531 58.2933 365.366 63.1147 365.366 68.832C365.366 72.2453 364.726 75.4453 363.446 78.432C362.166 81.4187 360.246 84.0213 357.686 86.24C355.126 88.4587 351.926 90.208 348.086 91.488C344.246 92.768 339.766 93.408 334.646 93.408C325.003 93.408 316.171 91.4453 308.15 87.52L312.118 74.464C315.787 76.256 319.371 77.664 322.87 78.688C326.369 79.6267 330.038 80.096 333.878 80.096C338.401 80.096 341.814 79.2853 344.118 77.664C346.422 75.9573 347.574 73.6107 347.574 70.624C347.574 69.6 347.361 68.6187 346.934 67.68C346.593 66.656 345.91 65.7173 344.886 64.864C343.862 63.9253 342.454 63.0293 340.662 62.176C338.955 61.2373 336.694 60.3413 333.878 59.488L327.094 57.184C324.107 56.16 321.377 54.9653 318.902 53.6C316.427 52.2347 314.294 50.656 312.502 48.864C310.795 47.072 309.43 44.9813 308.406 42.592C307.467 40.1173 306.998 37.2587 306.998 34.016C306.998 30.5173 307.638 27.3173 308.918 24.416C310.198 21.4293 312.075 18.8693 314.55 16.736C317.11 14.6027 320.225 12.9387 323.894 11.744C327.649 10.5493 331.915 9.952 336.694 9.952ZM437.447 61.024C437.447 66.0587 436.636 70.5813 435.015 74.592C433.394 78.6027 431.132 82.016 428.231 84.832C425.415 87.5627 422.087 89.696 418.247 91.232C414.407 92.6827 410.268 93.408 405.831 93.408C401.394 93.408 397.255 92.7253 393.415 91.36C389.66 89.9947 386.375 87.9893 383.559 85.344C380.828 82.6987 378.652 79.456 377.031 75.616C375.495 71.6907 374.727 67.2533 374.727 62.304C374.727 57.0987 375.538 52.4907 377.159 48.48C378.78 44.384 380.999 40.9707 383.815 38.24C386.716 35.424 390.087 33.2907 393.927 31.84C397.767 30.3893 401.906 29.664 406.343 29.664C410.78 29.664 414.876 30.3467 418.631 31.712C422.471 33.0773 425.756 35.0827 428.487 37.728C431.303 40.288 433.479 43.5307 435.015 47.456C436.636 51.3813 437.447 55.904 437.447 61.024ZM419.911 61.664C419.911 58.1653 419.527 55.1787 418.759 52.704C417.991 50.2293 416.967 48.224 415.687 46.688C414.407 45.152 412.914 44.0427 411.207 43.36C409.5 42.592 407.751 42.208 405.959 42.208C404.167 42.208 402.46 42.5493 400.839 43.232C399.218 43.8293 397.767 44.896 396.487 46.432C395.207 47.8827 394.183 49.8453 393.415 52.32C392.647 54.7947 392.263 57.9093 392.263 61.664C392.263 64.992 392.647 67.8933 393.415 70.368C394.183 72.7573 395.207 74.72 396.487 76.256C397.852 77.792 399.346 78.944 400.967 79.712C402.674 80.48 404.423 80.864 406.215 80.864C408.007 80.864 409.714 80.5653 411.335 79.968C412.956 79.2853 414.407 78.176 415.687 76.64C416.967 75.104 417.991 73.1413 418.759 70.752C419.527 68.2773 419.911 65.248 419.911 61.664ZM450.579 36.32C454.248 34.1867 458.131 32.5653 462.227 31.456C466.323 30.2613 470.675 29.664 475.283 29.664C478.952 29.664 482.28 30.0907 485.267 30.944C488.339 31.7973 490.942 33.1627 493.075 35.04C495.294 36.832 496.958 39.1787 498.067 42.08C499.262 44.896 499.859 48.3093 499.859 52.32V92H486.675L485.139 85.728H484.627C482.664 88.1173 480.147 89.9947 477.075 91.36C474.088 92.7253 470.59 93.408 466.579 93.408C463.251 93.408 460.307 92.9387 457.747 92C455.187 90.976 453.011 89.6533 451.219 88.032C449.427 86.3253 448.062 84.32 447.123 82.016C446.27 79.712 445.843 77.2373 445.843 74.592C445.843 71.0933 446.568 68.1067 448.019 65.632C449.555 63.072 451.646 60.9813 454.291 59.36C456.936 57.7387 460.008 56.544 463.507 55.776C467.091 55.008 470.931 54.624 475.027 54.624H482.707V50.912C482.707 48.096 481.811 46.048 480.019 44.768C478.312 43.4027 475.88 42.72 472.723 42.72C470.248 42.72 467.688 43.104 465.043 43.872C462.483 44.64 459.624 45.8773 456.467 47.584L450.579 36.32ZM482.835 65.248L477.331 65.376C472.126 65.5467 468.499 66.4427 466.451 68.064C464.403 69.6 463.379 71.4773 463.379 73.696C463.379 76.5973 464.232 78.6027 465.939 79.712C467.731 80.736 469.736 81.248 471.955 81.248C474.174 81.248 476.264 80.608 478.227 79.328C480.275 78.048 481.811 76.5547 482.835 74.848V65.248ZM516.067 92V0.607994H532.835V92H516.067Z" fill="#17B1CC"/>
</svg>
