<svg width="162" height="179" viewBox="0 0 162 179" fill="none" xmlns="http://www.w3.org/2000/svg">
<path d="M144.888 8.82187C145.81 10.2088 145.81 10.2088 146.752 11.6238C142.197 13.0148 137.646 14.0462 132.978 14.9831C105.344 20.6008 70.5839 32.191 53.5392 56.4539C49.6434 63.7877 48.951 70.1683 51.3545 78.081C54.9997 86.8737 63.4917 90.6785 71.7616 94.2224C77.1739 96.4589 82.6816 98.4257 88.2518 100.23C92.4161 101.619 95.6593 103.364 99.2134 105.954C99.2134 107.997 99.2134 107.997 98.2813 110.624C88.6959 119.868 73.6927 119.552 61.3799 119.475C52.6491 119.268 45.0063 118.196 36.7609 115.294C35.5047 114.905 35.5047 114.905 34.223 114.509C21.9766 110.289 10.7269 101.013 4.40592 89.7519C-0.932776 78.7455 -1.12159 66.1641 2.23945 54.4948C9.13841 35.1136 23.9904 21.3833 42.2845 12.6416C49.86 9.15054 57.5541 6.17238 65.6568 4.15206C66.7575 3.87275 67.8581 3.59343 68.9921 3.30566C92.0698 -1.8117 123.337 -1.71773 144.888 8.82187Z" fill="#6817E0"/>
<path d="M148.907 74.7246C158.126 84.4675 162.03 96.346 161.944 109.569C161.481 126.833 152.859 141.495 140.576 153.177C126.708 165.206 110.685 172.819 92.6885 176.001C91.7634 176.165 91.7634 176.165 90.8197 176.333C69.831 179.838 42.8431 180.412 22.779 172.265C22.1638 171.341 21.5486 170.416 20.9147 169.463C23.1315 166.812 24.732 166.22 28.1169 165.735C28.9938 165.6 29.8707 165.465 30.7742 165.325C31.7117 165.188 32.6491 165.051 33.615 164.91C59.0374 160.798 83.4144 151.114 102.942 133.973C103.745 133.347 104.547 132.721 105.374 132.076C111.44 127.07 116.089 119.692 117.313 111.872C117.657 105.264 116.148 100.107 112.263 94.7464C103.276 85.1312 88.7042 81.728 76.5925 77.7511C75.7004 77.4518 74.8084 77.1526 73.8894 76.8443C73.0889 76.5816 72.2884 76.3189 71.4637 76.0483C69.2726 75.0836 68.0602 74.2128 66.5889 72.3313C66.5307 70.1132 66.5307 70.1132 67.5211 67.6615C75.4128 59.3488 87.168 57.7465 98.1183 57.3966C116.761 57.3169 134.88 61.8126 148.907 74.7246Z" fill="#17B1CC"/>
</svg>
